<?xml version="1.0" encoding="utf-8"?>
<!-- Generator: Adobe Illustrator 23.0.6, SVG Export Plug-In . SVG Version: 6.00 Build 0)  -->
<svg version="1.1" id="Layer_1" xmlns="http://www.w3.org/2000/svg" xmlns:xlink="http://www.w3.org/1999/xlink" x="0px" y="0px"
	 viewBox="0 0 300.25 94.81" style="enable-background:new 0 0 300.25 94.81;" xml:space="preserve">
<style type="text/css">
	.st0{fill:#CCBEB8;}
	.st1{fill:#382F2D;}
	.st2{fill:none;}
</style>
<g>
	<g>
		<path class="st0" d="M285.13,66.84V24.57h-5.68c-3.4,0-3.4,3.4-3.4,3.4v38.87c0,3.4,3.4,3.4,3.4,3.4h2.28
			C285.13,70.24,285.13,66.84,285.13,66.84 M272.66,66.84l-0.01-42.27h-5.67c0,0-3.4,0-3.4,3.4v38.87c0,0,0,3.4,3.4,3.4h2.28
			C269.26,70.24,272.66,70.24,272.66,66.84 M260.23,36.11h-17.32c0,0-3.4,0-3.4,3.4v2.28c0,0,0,3.4,3.4,3.4h4.84
			c0,0,3.28,0.02,3.38,3.27l0.02,18.39c0,0,0,3.4,3.4,3.4h2.28c0,0,3.4,0,3.4-3.4L260.23,36.11z M260.23,30.24l0-5.68h-17.32
			c0,0-3.4,0-3.4,3.4v2.27c0,0,0,3.4,3.4,3.4h13.91C256.83,33.64,260.23,33.64,260.23,30.24 M236.14,24.57h-5.65c0,0-3.4,0-3.4,3.4
			v15.89c0,0,0,3.4,3.4,3.4h2.28c0,0,3.12,0,3.38-2.98C236.15,44.14,236.14,24.57,236.14,24.57 M223.73,66.84V24.57h-5.68
			c0,0-3.4,0-3.4,3.4v38.87c0,0,0,3.4,3.4,3.4h2.27C220.33,70.24,223.73,70.24,223.73,66.84 M227.08,53.02v2.27c0,0,0,3.4,3.4,3.4
			h13.92c0,0,3.15,0,3.39-3.04c0.01-0.12,0-6.04,0-6.04l-17.31,0C230.48,49.62,227.08,49.62,227.08,53.02 M227.08,64.56v2.28
			c0,0,0,3.4,3.4,3.4h13.92c0,0,3.12,0,3.38-2.98c0.01-0.13,0.01-6.08,0.01-6.08l-17.34,0C230.45,61.17,227.08,61.16,227.08,64.56"
			/>
	</g>
	<g>
		<g>
			<g>
				<polygon class="st1" points="40.64,41.68 40.64,41.68 31.15,41.68 31.15,41.68 30.04,41.68 30.04,23.95 28.45,23.95 
					28.45,43.27 55.56,43.27 55.56,41.68 				"/>
			</g>
		</g>
		<g>
			<g>
				<path class="st1" d="M190.3,24.17v17.66h-9.78V37.9c0-3.09-2.51-5.6-5.6-5.6h-3.89l-0.02,1.64h3.91c2.19,0,3.96,1.77,3.96,3.96
					v3.93h-45.82l-0.02,1.58h58.93V24.17H190.3z"/>
			</g>
		</g>
		<path class="st2" d="M148.66,55.45h-4.92v7.68h4.92C154.27,63.13,154.15,55.38,148.66,55.45z"/>
		<path class="st2" d="M102.32,58.92c0-2.62-1.75-3.52-4.18-3.47h-4.93v6.96h4.93C100.72,62.41,102.32,61.56,102.32,58.92z"/>
		<polygon class="st2" points="175.49,63.82 181.69,63.82 178.59,55.1 		"/>
		<polygon class="st2" points="74.53,63.81 80.72,63.81 77.63,55.1 		"/>
		<polygon class="st2" points="129.98,63.82 136.17,63.82 133.08,55.1 		"/>
		<polygon class="st2" points="18.54,63.81 24.72,63.81 21.63,55.1 		"/>
		<path class="st1" d="M124.06,57.53v-0.02l1.25-0.61c-2.27-4.71-11.99-3.81-11.99,2.08v6.9c0,6.01,9.74,6.69,11.99,2.06l-1.25-0.61
			c-1.7,3.43-9.34,2.93-9.34-1.44v-6.9C114.72,54.6,122.36,54.1,124.06,57.53z"/>
		<path class="st1" d="M132.06,54.05l-6,16.74h1.47l1.96-5.58h7.19l2.01,5.58h1.46l-6.05-16.74H132.06z M129.98,63.82l3.1-8.72
			l3.1,8.72H129.98z"/>
		<path class="st1" d="M148.66,54.05h-6.31v16.74h1.4v-6.27h4.94C156.04,64.53,156.06,54.05,148.66,54.05z M148.66,63.13h-4.92
			v-7.68h4.92C154.15,55.38,154.27,63.13,148.66,63.13z"/>
		<rect x="156.92" y="54.05" class="st1" width="1.39" height="16.74"/>
		<polygon class="st1" points="173.31,54.03 160.76,54.03 160.76,55.43 166.34,55.43 166.34,70.79 167.73,70.79 167.73,55.43 
			173.31,55.43 		"/>
		<path class="st1" d="M177.57,54.05l-6.01,16.74h1.47l1.96-5.58h7.19l2.01,5.58h1.47l-6.05-16.74H177.57z M175.49,63.82l3.1-8.72
			l3.1,8.72H175.49z"/>
		<polygon class="st1" points="188.26,54.05 186.87,54.05 186.87,70.79 196.63,70.79 196.63,69.4 188.26,69.4 		"/>
		<path class="st1" d="M20.61,54.06l-6,16.71h1.46l1.96-5.57h7.18l2.01,5.57h1.46l-6.04-16.71H20.61z M18.54,63.81l3.09-8.71
			l3.09,8.71H18.54z"/>
		<polygon class="st1" points="31.29,54.06 29.89,54.06 29.89,70.77 39.64,70.77 39.64,69.38 31.29,69.38 		"/>
		<polygon class="st1" points="52.39,54.06 43.04,63.24 43.04,54.06 41.65,54.06 41.65,70.77 43.04,70.77 43.04,65.2 45.14,63.1 
			52.34,70.77 54.14,70.77 46.13,62.11 54.18,54.06 		"/>
		<polygon class="st1" points="67.12,61.73 57.37,61.73 57.37,54.06 55.98,54.06 55.98,70.77 57.37,70.77 57.37,63.12 67.12,63.12 
			67.12,70.77 68.51,70.77 68.51,54.06 67.12,54.06 		"/>
		<path class="st1" d="M76.61,54.06l-6,16.71h1.46l1.96-5.57h7.18l2.01,5.57h1.46l-6.04-16.71H76.61z M74.53,63.81l3.09-8.71
			l3.09,8.71H74.53z"/>
		<rect x="86.88" y="54.06" class="st1" width="1.39" height="16.71"/>
		<path class="st1" d="M103.71,58.92c-0.07-3.47-2.46-4.86-5.59-4.86h-6.3v16.71h1.39v-7.08h3.19l5.62,7.08h1.67l-5.59-7.08h0.05
			C101.14,63.69,103.71,62.39,103.71,58.92z M93.21,62.41v-6.96h4.93c2.43-0.05,4.18,0.85,4.18,3.47c0,2.64-1.61,3.49-4.18,3.49
			H93.21z"/>
		<path class="st1" d="M61.56,29.59c0.63,0,1.13-0.5,1.13-1.13c0-0.63-0.5-1.13-1.13-1.13c-0.63,0-1.13,0.5-1.13,1.13
			C60.43,29.08,60.93,29.59,61.56,29.59z"/>
		<path class="st1" d="M58.19,29.59c0.63,0,1.13-0.5,1.13-1.13c0-0.63-0.5-1.13-1.13-1.13c-0.63,0-1.13,0.5-1.13,1.13
			C57.06,29.08,57.56,29.59,58.19,29.59z"/>
		<path class="st1" d="M175.24,29.88c0.63,0,1.13-0.5,1.13-1.13c0-0.63-0.5-1.13-1.13-1.13c-0.63,0-1.13,0.5-1.13,1.13
			C174.11,29.38,174.61,29.88,175.24,29.88z"/>
		<g>
			<path class="st1" d="M70.37,44.84c-0.63,0-1.13,0.5-1.13,1.13c0,0.63,0.5,1.13,1.13,1.13c0.63,0,1.13-0.5,1.13-1.13
				C71.49,45.34,70.99,44.84,70.37,44.84z"/>
			<path class="st1" d="M66.99,44.84c-0.63,0-1.13,0.5-1.13,1.13c0,0.63,0.5,1.13,1.13,1.13c0.63,0,1.13-0.5,1.13-1.13
				C68.12,45.34,67.62,44.84,66.99,44.84z"/>
			<path class="st1" d="M76.6,44.84c-0.63,0-1.13,0.5-1.13,1.13c0,0.63,0.5,1.13,1.13,1.13c0.63,0,1.13-0.5,1.13-1.13
				C77.72,45.34,77.22,44.84,76.6,44.84z"/>
			<path class="st1" d="M80.85,37.68c0,2.18-1.77,3.96-3.96,3.96h-4.57v-9.58h-1.59v9.63h-7.87v-9.63h-1.59v9.63L34.28,41.7v1.59
				l28.58-0.02h9.37h0.09h4.57c3.09,0,5.6-2.51,5.6-5.6V32l-1.64,0V37.68z"/>
			<path class="st1" d="M23.74,37.69c0,2.18-1.77,3.96-3.96,3.96h-5.16v1.64h5.16c3.09,0,5.6-2.51,5.6-5.6V23.85h-1.64V37.69z"/>
			<path class="st1" d="M144.53,45.15c-0.63,0-1.13,0.5-1.13,1.13c0,0.63,0.5,1.13,1.13,1.13c0.63,0,1.13-0.5,1.13-1.13
				C145.66,45.65,145.16,45.15,144.53,45.15z"/>
			<path class="st1" d="M141.16,45.15c-0.63,0-1.13,0.5-1.13,1.13c0,0.63,0.5,1.13,1.13,1.13c0.63,0,1.13-0.5,1.13-1.13
				C142.29,45.65,141.78,45.15,141.16,45.15z"/>
			<rect x="195.04" y="24.17" class="st1" width="1.59" height="19.36"/>
			<path class="st1" d="M146.42,32.17v9.63h-26.76l0.02-9.66h-1.66v0.3h0v6.67h0v2.71c0,2.19-1.77,3.96-3.96,3.96h-3v1.64h3
				c2.55,0,4.69-1.7,5.37-4.03h28.57V32.17H146.42z"/>
			<path class="st1" d="M102.67,23.87l-9.84,9.72l2.16,0.04h3.87c2.19,0,3.96,1.77,3.96,3.96v4.07v0.05H87.27V23.91H85.7v19.36
				l17.11,0h1.64v-5.68c0-3.09-2.51-5.6-5.6-5.6h-2.3l8.16-8.12H102.67z"/>
		</g>
	</g>
</g>
</svg>
